<?xml version="1.0" encoding="utf-8" standalone="no"?>
<!DOCTYPE svg PUBLIC "-//W3C//DTD SVG 1.1//EN"
  "http://www.w3.org/Graphics/SVG/1.1/DTD/svg11.dtd">
<svg xmlns:xlink="http://www.w3.org/1999/xlink" width="518.4pt" height="230.4pt" viewBox="0 0 518.4 230.4" xmlns="http://www.w3.org/2000/svg" version="1.1">
 <metadata>
  <rdf:RDF xmlns:dc="http://purl.org/dc/elements/1.1/" xmlns:cc="http://creativecommons.org/ns#" xmlns:rdf="http://www.w3.org/1999/02/22-rdf-syntax-ns#">
   <cc:Work>
    <dc:type rdf:resource="http://purl.org/dc/dcmitype/StillImage"/>
    <dc:date>2025-12-01T02:02:46.515067</dc:date>
    <dc:format>image/svg+xml</dc:format>
    <dc:creator>
     <cc:Agent>
      <dc:title>Matplotlib v3.10.0, https://matplotlib.org/</dc:title>
     </cc:Agent>
    </dc:creator>
   </cc:Work>
  </rdf:RDF>
 </metadata>
 <defs>
  <style type="text/css">*{stroke-linejoin: round; stroke-linecap: butt}</style>
 </defs>
 <g id="figure_1">
  <g id="patch_1">
   <path d="M 0 230.4 
L 518.4 230.4 
L 518.4 0 
L 0 0 
z
" style="fill: #ffffff"/>
  </g>
  <g id="axes_1">
   <g id="patch_2">
    <path d="M 41.565 183.837162 
L 476.565 183.837162 
L 476.565 14.04 
L 41.565 14.04 
z
" style="fill: #ffffff"/>
   </g>
   <g id="matplotlib.axis_1">
    <g id="xtick_1">
     <g id="line2d_1">
      <path d="M 66.772092 183.837162 
L 66.772092 14.04 
" clip-path="url(#p433e00a382)" style="fill: none; stroke: #cccccc; stroke-width: 0.8; stroke-linecap: round"/>
     </g>
     <g id="line2d_2"/>
     <g id="text_1">
      <!-- 2003 -->
      <g style="fill: #262626" transform="translate(61.339358 206.048202) rotate(-45) scale(0.09 -0.09)">
       <defs>
        <path id="ArialMT-32" d="M 3222 541 
L 3222 0 
L 194 0 
Q 188 203 259 391 
Q 375 700 629 1000 
Q 884 1300 1366 1694 
Q 2113 2306 2375 2664 
Q 2638 3022 2638 3341 
Q 2638 3675 2398 3904 
Q 2159 4134 1775 4134 
Q 1369 4134 1125 3890 
Q 881 3647 878 3216 
L 300 3275 
Q 359 3922 746 4261 
Q 1134 4600 1788 4600 
Q 2447 4600 2831 4234 
Q 3216 3869 3216 3328 
Q 3216 3053 3103 2787 
Q 2991 2522 2730 2228 
Q 2469 1934 1863 1422 
Q 1356 997 1212 845 
Q 1069 694 975 541 
L 3222 541 
z
" transform="scale(0.015625)"/>
        <path id="ArialMT-30" d="M 266 2259 
Q 266 3072 433 3567 
Q 600 4063 929 4331 
Q 1259 4600 1759 4600 
Q 2128 4600 2406 4451 
Q 2684 4303 2865 4023 
Q 3047 3744 3150 3342 
Q 3253 2941 3253 2259 
Q 3253 1453 3087 958 
Q 2922 463 2592 192 
Q 2263 -78 1759 -78 
Q 1097 -78 719 397 
Q 266 969 266 2259 
z
M 844 2259 
Q 844 1131 1108 757 
Q 1372 384 1759 384 
Q 2147 384 2411 759 
Q 2675 1134 2675 2259 
Q 2675 3391 2411 3762 
Q 2147 4134 1753 4134 
Q 1366 4134 1134 3806 
Q 844 3388 844 2259 
z
" transform="scale(0.015625)"/>
        <path id="ArialMT-33" d="M 269 1209 
L 831 1284 
Q 928 806 1161 595 
Q 1394 384 1728 384 
Q 2125 384 2398 659 
Q 2672 934 2672 1341 
Q 2672 1728 2419 1979 
Q 2166 2231 1775 2231 
Q 1616 2231 1378 2169 
L 1441 2663 
Q 1497 2656 1531 2656 
Q 1891 2656 2178 2843 
Q 2466 3031 2466 3422 
Q 2466 3731 2256 3934 
Q 2047 4138 1716 4138 
Q 1388 4138 1169 3931 
Q 950 3725 888 3313 
L 325 3413 
Q 428 3978 793 4289 
Q 1159 4600 1703 4600 
Q 2078 4600 2393 4439 
Q 2709 4278 2876 4000 
Q 3044 3722 3044 3409 
Q 3044 3113 2884 2869 
Q 2725 2625 2413 2481 
Q 2819 2388 3044 2092 
Q 3269 1797 3269 1353 
Q 3269 753 2831 336 
Q 2394 -81 1725 -81 
Q 1122 -81 723 278 
Q 325 638 269 1209 
z
" transform="scale(0.015625)"/>
       </defs>
       <use xlink:href="#ArialMT-32"/>
       <use xlink:href="#ArialMT-30" transform="translate(55.615234 0)"/>
       <use xlink:href="#ArialMT-30" transform="translate(111.230469 0)"/>
       <use xlink:href="#ArialMT-33" transform="translate(166.845703 0)"/>
      </g>
     </g>
    </g>
    <g id="xtick_2">
     <g id="line2d_3">
      <path d="M 100.214337 183.837162 
L 100.214337 14.04 
" clip-path="url(#p433e00a382)" style="fill: none; stroke: #cccccc; stroke-width: 0.8; stroke-linecap: round"/>
     </g>
     <g id="line2d_4"/>
     <g id="text_2">
      <!-- 2005 -->
      <g style="fill: #262626" transform="translate(94.781602 206.048202) rotate(-45) scale(0.09 -0.09)">
       <defs>
        <path id="ArialMT-35" d="M 266 1200 
L 856 1250 
Q 922 819 1161 601 
Q 1400 384 1738 384 
Q 2144 384 2425 690 
Q 2706 997 2706 1503 
Q 2706 1984 2436 2262 
Q 2166 2541 1728 2541 
Q 1456 2541 1237 2417 
Q 1019 2294 894 2097 
L 366 2166 
L 809 4519 
L 3088 4519 
L 3088 3981 
L 1259 3981 
L 1013 2750 
Q 1425 3038 1878 3038 
Q 2478 3038 2890 2622 
Q 3303 2206 3303 1553 
Q 3303 931 2941 478 
Q 2500 -78 1738 -78 
Q 1113 -78 717 272 
Q 322 622 266 1200 
z
" transform="scale(0.015625)"/>
       </defs>
       <use xlink:href="#ArialMT-32"/>
       <use xlink:href="#ArialMT-30" transform="translate(55.615234 0)"/>
       <use xlink:href="#ArialMT-30" transform="translate(111.230469 0)"/>
       <use xlink:href="#ArialMT-35" transform="translate(166.845703 0)"/>
      </g>
     </g>
    </g>
    <g id="xtick_3">
     <g id="line2d_5">
      <path d="M 133.656582 183.837162 
L 133.656582 14.04 
" clip-path="url(#p433e00a382)" style="fill: none; stroke: #cccccc; stroke-width: 0.8; stroke-linecap: round"/>
     </g>
     <g id="line2d_6"/>
     <g id="text_3">
      <!-- 2007 -->
      <g style="fill: #262626" transform="translate(128.223847 206.048202) rotate(-45) scale(0.09 -0.09)">
       <defs>
        <path id="ArialMT-37" d="M 303 3981 
L 303 4522 
L 3269 4522 
L 3269 4084 
Q 2831 3619 2401 2847 
Q 1972 2075 1738 1259 
Q 1569 684 1522 0 
L 944 0 
Q 953 541 1156 1306 
Q 1359 2072 1739 2783 
Q 2119 3494 2547 3981 
L 303 3981 
z
" transform="scale(0.015625)"/>
       </defs>
       <use xlink:href="#ArialMT-32"/>
       <use xlink:href="#ArialMT-30" transform="translate(55.615234 0)"/>
       <use xlink:href="#ArialMT-30" transform="translate(111.230469 0)"/>
       <use xlink:href="#ArialMT-37" transform="translate(166.845703 0)"/>
      </g>
     </g>
    </g>
    <g id="xtick_4">
     <g id="line2d_7">
      <path d="M 167.098827 183.837162 
L 167.098827 14.04 
" clip-path="url(#p433e00a382)" style="fill: none; stroke: #cccccc; stroke-width: 0.8; stroke-linecap: round"/>
     </g>
     <g id="line2d_8"/>
     <g id="text_4">
      <!-- 2009 -->
      <g style="fill: #262626" transform="translate(161.666092 206.048202) rotate(-45) scale(0.09 -0.09)">
       <defs>
        <path id="ArialMT-39" d="M 350 1059 
L 891 1109 
Q 959 728 1153 556 
Q 1347 384 1650 384 
Q 1909 384 2104 503 
Q 2300 622 2425 820 
Q 2550 1019 2634 1356 
Q 2719 1694 2719 2044 
Q 2719 2081 2716 2156 
Q 2547 1888 2255 1720 
Q 1963 1553 1622 1553 
Q 1053 1553 659 1965 
Q 266 2378 266 3053 
Q 266 3750 677 4175 
Q 1088 4600 1706 4600 
Q 2153 4600 2523 4359 
Q 2894 4119 3086 3673 
Q 3278 3228 3278 2384 
Q 3278 1506 3087 986 
Q 2897 466 2520 194 
Q 2144 -78 1638 -78 
Q 1100 -78 759 220 
Q 419 519 350 1059 
z
M 2653 3081 
Q 2653 3566 2395 3850 
Q 2138 4134 1775 4134 
Q 1400 4134 1122 3828 
Q 844 3522 844 3034 
Q 844 2597 1108 2323 
Q 1372 2050 1759 2050 
Q 2150 2050 2401 2323 
Q 2653 2597 2653 3081 
z
" transform="scale(0.015625)"/>
       </defs>
       <use xlink:href="#ArialMT-32"/>
       <use xlink:href="#ArialMT-30" transform="translate(55.615234 0)"/>
       <use xlink:href="#ArialMT-30" transform="translate(111.230469 0)"/>
       <use xlink:href="#ArialMT-39" transform="translate(166.845703 0)"/>
      </g>
     </g>
    </g>
    <g id="xtick_5">
     <g id="line2d_9">
      <path d="M 200.541071 183.837162 
L 200.541071 14.04 
" clip-path="url(#p433e00a382)" style="fill: none; stroke: #cccccc; stroke-width: 0.8; stroke-linecap: round"/>
     </g>
     <g id="line2d_10"/>
     <g id="text_5">
      <!-- 2011 -->
      <g style="fill: #262626" transform="translate(195.343008 205.57886) rotate(-45) scale(0.09 -0.09)">
       <defs>
        <path id="ArialMT-31" d="M 2384 0 
L 1822 0 
L 1822 3584 
Q 1619 3391 1289 3197 
Q 959 3003 697 2906 
L 697 3450 
Q 1169 3672 1522 3987 
Q 1875 4303 2022 4600 
L 2384 4600 
L 2384 0 
z
" transform="scale(0.015625)"/>
       </defs>
       <use xlink:href="#ArialMT-32"/>
       <use xlink:href="#ArialMT-30" transform="translate(55.615234 0)"/>
       <use xlink:href="#ArialMT-31" transform="translate(111.230469 0)"/>
       <use xlink:href="#ArialMT-31" transform="translate(159.470703 0)"/>
      </g>
     </g>
    </g>
    <g id="xtick_6">
     <g id="line2d_11">
      <path d="M 233.983316 183.837162 
L 233.983316 14.04 
" clip-path="url(#p433e00a382)" style="fill: none; stroke: #cccccc; stroke-width: 0.8; stroke-linecap: round"/>
     </g>
     <g id="line2d_12"/>
     <g id="text_6">
      <!-- 2013 -->
      <g style="fill: #262626" transform="translate(228.550582 206.048202) rotate(-45) scale(0.09 -0.09)">
       <use xlink:href="#ArialMT-32"/>
       <use xlink:href="#ArialMT-30" transform="translate(55.615234 0)"/>
       <use xlink:href="#ArialMT-31" transform="translate(111.230469 0)"/>
       <use xlink:href="#ArialMT-33" transform="translate(166.845703 0)"/>
      </g>
     </g>
    </g>
    <g id="xtick_7">
     <g id="line2d_13">
      <path d="M 267.425561 183.837162 
L 267.425561 14.04 
" clip-path="url(#p433e00a382)" style="fill: none; stroke: #cccccc; stroke-width: 0.8; stroke-linecap: round"/>
     </g>
     <g id="line2d_14"/>
     <g id="text_7">
      <!-- 2015 -->
      <g style="fill: #262626" transform="translate(261.992827 206.048202) rotate(-45) scale(0.09 -0.09)">
       <use xlink:href="#ArialMT-32"/>
       <use xlink:href="#ArialMT-30" transform="translate(55.615234 0)"/>
       <use xlink:href="#ArialMT-31" transform="translate(111.230469 0)"/>
       <use xlink:href="#ArialMT-35" transform="translate(166.845703 0)"/>
      </g>
     </g>
    </g>
    <g id="xtick_8">
     <g id="line2d_15">
      <path d="M 300.867806 183.837162 
L 300.867806 14.04 
" clip-path="url(#p433e00a382)" style="fill: none; stroke: #cccccc; stroke-width: 0.8; stroke-linecap: round"/>
     </g>
     <g id="line2d_16"/>
     <g id="text_8">
      <!-- 2017 -->
      <g style="fill: #262626" transform="translate(295.435072 206.048202) rotate(-45) scale(0.09 -0.09)">
       <use xlink:href="#ArialMT-32"/>
       <use xlink:href="#ArialMT-30" transform="translate(55.615234 0)"/>
       <use xlink:href="#ArialMT-31" transform="translate(111.230469 0)"/>
       <use xlink:href="#ArialMT-37" transform="translate(166.845703 0)"/>
      </g>
     </g>
    </g>
    <g id="xtick_9">
     <g id="line2d_17">
      <path d="M 334.310051 183.837162 
L 334.310051 14.04 
" clip-path="url(#p433e00a382)" style="fill: none; stroke: #cccccc; stroke-width: 0.8; stroke-linecap: round"/>
     </g>
     <g id="line2d_18"/>
     <g id="text_9">
      <!-- 2019 -->
      <g style="fill: #262626" transform="translate(328.877316 206.048202) rotate(-45) scale(0.09 -0.09)">
       <use xlink:href="#ArialMT-32"/>
       <use xlink:href="#ArialMT-30" transform="translate(55.615234 0)"/>
       <use xlink:href="#ArialMT-31" transform="translate(111.230469 0)"/>
       <use xlink:href="#ArialMT-39" transform="translate(166.845703 0)"/>
      </g>
     </g>
    </g>
    <g id="xtick_10">
     <g id="line2d_19">
      <path d="M 367.752296 183.837162 
L 367.752296 14.04 
" clip-path="url(#p433e00a382)" style="fill: none; stroke: #cccccc; stroke-width: 0.8; stroke-linecap: round"/>
     </g>
     <g id="line2d_20"/>
     <g id="text_10">
      <!-- 2021 -->
      <g style="fill: #262626" transform="translate(362.319561 206.048202) rotate(-45) scale(0.09 -0.09)">
       <use xlink:href="#ArialMT-32"/>
       <use xlink:href="#ArialMT-30" transform="translate(55.615234 0)"/>
       <use xlink:href="#ArialMT-32" transform="translate(111.230469 0)"/>
       <use xlink:href="#ArialMT-31" transform="translate(166.845703 0)"/>
      </g>
     </g>
    </g>
    <g id="xtick_11">
     <g id="line2d_21">
      <path d="M 401.194541 183.837162 
L 401.194541 14.04 
" clip-path="url(#p433e00a382)" style="fill: none; stroke: #cccccc; stroke-width: 0.8; stroke-linecap: round"/>
     </g>
     <g id="line2d_22"/>
     <g id="text_11">
      <!-- 2023 -->
      <g style="fill: #262626" transform="translate(395.761806 206.048202) rotate(-45) scale(0.09 -0.09)">
       <use xlink:href="#ArialMT-32"/>
       <use xlink:href="#ArialMT-30" transform="translate(55.615234 0)"/>
       <use xlink:href="#ArialMT-32" transform="translate(111.230469 0)"/>
       <use xlink:href="#ArialMT-33" transform="translate(166.845703 0)"/>
      </g>
     </g>
    </g>
    <g id="xtick_12">
     <g id="line2d_23">
      <path d="M 434.636786 183.837162 
L 434.636786 14.04 
" clip-path="url(#p433e00a382)" style="fill: none; stroke: #cccccc; stroke-width: 0.8; stroke-linecap: round"/>
     </g>
     <g id="line2d_24"/>
     <g id="text_12">
      <!-- 2025 -->
      <g style="fill: #262626" transform="translate(429.204051 206.048202) rotate(-45) scale(0.09 -0.09)">
       <use xlink:href="#ArialMT-32"/>
       <use xlink:href="#ArialMT-30" transform="translate(55.615234 0)"/>
       <use xlink:href="#ArialMT-32" transform="translate(111.230469 0)"/>
       <use xlink:href="#ArialMT-35" transform="translate(166.845703 0)"/>
      </g>
     </g>
    </g>
    <g id="text_13">
     <!-- Publication year -->
     <g style="fill: #262626" transform="translate(227.048203 217.755071) scale(0.09 -0.09)">
      <defs>
       <path id="ArialMT-50" d="M 494 0 
L 494 4581 
L 2222 4581 
Q 2678 4581 2919 4538 
Q 3256 4481 3484 4323 
Q 3713 4166 3852 3881 
Q 3991 3597 3991 3256 
Q 3991 2672 3619 2267 
Q 3247 1863 2275 1863 
L 1100 1863 
L 1100 0 
L 494 0 
z
M 1100 2403 
L 2284 2403 
Q 2872 2403 3119 2622 
Q 3366 2841 3366 3238 
Q 3366 3525 3220 3729 
Q 3075 3934 2838 4000 
Q 2684 4041 2272 4041 
L 1100 4041 
L 1100 2403 
z
" transform="scale(0.015625)"/>
       <path id="ArialMT-75" d="M 2597 0 
L 2597 488 
Q 2209 -75 1544 -75 
Q 1250 -75 995 37 
Q 741 150 617 320 
Q 494 491 444 738 
Q 409 903 409 1263 
L 409 3319 
L 972 3319 
L 972 1478 
Q 972 1038 1006 884 
Q 1059 663 1231 536 
Q 1403 409 1656 409 
Q 1909 409 2131 539 
Q 2353 669 2445 892 
Q 2538 1116 2538 1541 
L 2538 3319 
L 3100 3319 
L 3100 0 
L 2597 0 
z
" transform="scale(0.015625)"/>
       <path id="ArialMT-62" d="M 941 0 
L 419 0 
L 419 4581 
L 981 4581 
L 981 2947 
Q 1338 3394 1891 3394 
Q 2197 3394 2470 3270 
Q 2744 3147 2920 2923 
Q 3097 2700 3197 2384 
Q 3297 2069 3297 1709 
Q 3297 856 2875 390 
Q 2453 -75 1863 -75 
Q 1275 -75 941 416 
L 941 0 
z
M 934 1684 
Q 934 1088 1097 822 
Q 1363 388 1816 388 
Q 2184 388 2453 708 
Q 2722 1028 2722 1663 
Q 2722 2313 2464 2622 
Q 2206 2931 1841 2931 
Q 1472 2931 1203 2611 
Q 934 2291 934 1684 
z
" transform="scale(0.015625)"/>
       <path id="ArialMT-6c" d="M 409 0 
L 409 4581 
L 972 4581 
L 972 0 
L 409 0 
z
" transform="scale(0.015625)"/>
       <path id="ArialMT-69" d="M 425 3934 
L 425 4581 
L 988 4581 
L 988 3934 
L 425 3934 
z
M 425 0 
L 425 3319 
L 988 3319 
L 988 0 
L 425 0 
z
" transform="scale(0.015625)"/>
       <path id="ArialMT-63" d="M 2588 1216 
L 3141 1144 
Q 3050 572 2676 248 
Q 2303 -75 1759 -75 
Q 1078 -75 664 370 
Q 250 816 250 1647 
Q 250 2184 428 2587 
Q 606 2991 970 3192 
Q 1334 3394 1763 3394 
Q 2303 3394 2647 3120 
Q 2991 2847 3088 2344 
L 2541 2259 
Q 2463 2594 2264 2762 
Q 2066 2931 1784 2931 
Q 1359 2931 1093 2626 
Q 828 2322 828 1663 
Q 828 994 1084 691 
Q 1341 388 1753 388 
Q 2084 388 2306 591 
Q 2528 794 2588 1216 
z
" transform="scale(0.015625)"/>
       <path id="ArialMT-61" d="M 2588 409 
Q 2275 144 1986 34 
Q 1697 -75 1366 -75 
Q 819 -75 525 192 
Q 231 459 231 875 
Q 231 1119 342 1320 
Q 453 1522 633 1644 
Q 813 1766 1038 1828 
Q 1203 1872 1538 1913 
Q 2219 1994 2541 2106 
Q 2544 2222 2544 2253 
Q 2544 2597 2384 2738 
Q 2169 2928 1744 2928 
Q 1347 2928 1158 2789 
Q 969 2650 878 2297 
L 328 2372 
Q 403 2725 575 2942 
Q 747 3159 1072 3276 
Q 1397 3394 1825 3394 
Q 2250 3394 2515 3294 
Q 2781 3194 2906 3042 
Q 3031 2891 3081 2659 
Q 3109 2516 3109 2141 
L 3109 1391 
Q 3109 606 3145 398 
Q 3181 191 3288 0 
L 2700 0 
Q 2613 175 2588 409 
z
M 2541 1666 
Q 2234 1541 1622 1453 
Q 1275 1403 1131 1340 
Q 988 1278 909 1158 
Q 831 1038 831 891 
Q 831 666 1001 516 
Q 1172 366 1500 366 
Q 1825 366 2078 508 
Q 2331 650 2450 897 
Q 2541 1088 2541 1459 
L 2541 1666 
z
" transform="scale(0.015625)"/>
       <path id="ArialMT-74" d="M 1650 503 
L 1731 6 
Q 1494 -44 1306 -44 
Q 1000 -44 831 53 
Q 663 150 594 308 
Q 525 466 525 972 
L 525 2881 
L 113 2881 
L 113 3319 
L 525 3319 
L 525 4141 
L 1084 4478 
L 1084 3319 
L 1650 3319 
L 1650 2881 
L 1084 2881 
L 1084 941 
Q 1084 700 1114 631 
Q 1144 563 1211 522 
Q 1278 481 1403 481 
Q 1497 481 1650 503 
z
" transform="scale(0.015625)"/>
       <path id="ArialMT-6f" d="M 213 1659 
Q 213 2581 725 3025 
Q 1153 3394 1769 3394 
Q 2453 3394 2887 2945 
Q 3322 2497 3322 1706 
Q 3322 1066 3130 698 
Q 2938 331 2570 128 
Q 2203 -75 1769 -75 
Q 1072 -75 642 372 
Q 213 819 213 1659 
z
M 791 1659 
Q 791 1022 1069 705 
Q 1347 388 1769 388 
Q 2188 388 2466 706 
Q 2744 1025 2744 1678 
Q 2744 2294 2464 2611 
Q 2184 2928 1769 2928 
Q 1347 2928 1069 2612 
Q 791 2297 791 1659 
z
" transform="scale(0.015625)"/>
       <path id="ArialMT-6e" d="M 422 0 
L 422 3319 
L 928 3319 
L 928 2847 
Q 1294 3394 1984 3394 
Q 2284 3394 2536 3286 
Q 2788 3178 2913 3003 
Q 3038 2828 3088 2588 
Q 3119 2431 3119 2041 
L 3119 0 
L 2556 0 
L 2556 2019 
Q 2556 2363 2490 2533 
Q 2425 2703 2258 2804 
Q 2091 2906 1866 2906 
Q 1506 2906 1245 2678 
Q 984 2450 984 1813 
L 984 0 
L 422 0 
z
" transform="scale(0.015625)"/>
       <path id="ArialMT-20" transform="scale(0.015625)"/>
       <path id="ArialMT-79" d="M 397 -1278 
L 334 -750 
Q 519 -800 656 -800 
Q 844 -800 956 -737 
Q 1069 -675 1141 -563 
Q 1194 -478 1313 -144 
Q 1328 -97 1363 -6 
L 103 3319 
L 709 3319 
L 1400 1397 
Q 1534 1031 1641 628 
Q 1738 1016 1872 1384 
L 2581 3319 
L 3144 3319 
L 1881 -56 
Q 1678 -603 1566 -809 
Q 1416 -1088 1222 -1217 
Q 1028 -1347 759 -1347 
Q 597 -1347 397 -1278 
z
" transform="scale(0.015625)"/>
       <path id="ArialMT-65" d="M 2694 1069 
L 3275 997 
Q 3138 488 2766 206 
Q 2394 -75 1816 -75 
Q 1088 -75 661 373 
Q 234 822 234 1631 
Q 234 2469 665 2931 
Q 1097 3394 1784 3394 
Q 2450 3394 2872 2941 
Q 3294 2488 3294 1666 
Q 3294 1616 3291 1516 
L 816 1516 
Q 847 969 1125 678 
Q 1403 388 1819 388 
Q 2128 388 2347 550 
Q 2566 713 2694 1069 
z
M 847 1978 
L 2700 1978 
Q 2663 2397 2488 2606 
Q 2219 2931 1791 2931 
Q 1403 2931 1139 2672 
Q 875 2413 847 1978 
z
" transform="scale(0.015625)"/>
       <path id="ArialMT-72" d="M 416 0 
L 416 3319 
L 922 3319 
L 922 2816 
Q 1116 3169 1280 3281 
Q 1444 3394 1641 3394 
Q 1925 3394 2219 3213 
L 2025 2691 
Q 1819 2813 1613 2813 
Q 1428 2813 1281 2702 
Q 1134 2591 1072 2394 
Q 978 2094 978 1738 
L 978 0 
L 416 0 
z
" transform="scale(0.015625)"/>
      </defs>
      <use xlink:href="#ArialMT-50"/>
      <use xlink:href="#ArialMT-75" transform="translate(66.699219 0)"/>
      <use xlink:href="#ArialMT-62" transform="translate(122.314453 0)"/>
      <use xlink:href="#ArialMT-6c" transform="translate(177.929688 0)"/>
      <use xlink:href="#ArialMT-69" transform="translate(200.146484 0)"/>
      <use xlink:href="#ArialMT-63" transform="translate(222.363281 0)"/>
      <use xlink:href="#ArialMT-61" transform="translate(272.363281 0)"/>
      <use xlink:href="#ArialMT-74" transform="translate(327.978516 0)"/>
      <use xlink:href="#ArialMT-69" transform="translate(355.761719 0)"/>
      <use xlink:href="#ArialMT-6f" transform="translate(377.978516 0)"/>
      <use xlink:href="#ArialMT-6e" transform="translate(433.59375 0)"/>
      <use xlink:href="#ArialMT-20" transform="translate(489.208984 0)"/>
      <use xlink:href="#ArialMT-79" transform="translate(516.992188 0)"/>
      <use xlink:href="#ArialMT-65" transform="translate(566.992188 0)"/>
      <use xlink:href="#ArialMT-61" transform="translate(622.607422 0)"/>
      <use xlink:href="#ArialMT-72" transform="translate(678.222656 0)"/>
     </g>
    </g>
   </g>
   <g id="matplotlib.axis_2">
    <g id="ytick_1">
     <g id="line2d_25">
      <path d="M 41.565 183.837162 
L 476.565 183.837162 
" clip-path="url(#p433e00a382)" style="fill: none; stroke-dasharray: 2.22,0.96; stroke-dashoffset: 0; stroke: #cccccc; stroke-opacity: 0.6; stroke-width: 0.6"/>
     </g>
     <g id="line2d_26"/>
     <g id="text_14">
      <!-- 0 -->
      <g style="fill: #262626" transform="translate(33.060156 187.058178) scale(0.09 -0.09)">
       <use xlink:href="#ArialMT-30"/>
      </g>
     </g>
    </g>
    <g id="ytick_2">
     <g id="line2d_27">
      <path d="M 41.565 162.612517 
L 476.565 162.612517 
" clip-path="url(#p433e00a382)" style="fill: none; stroke-dasharray: 2.22,0.96; stroke-dashoffset: 0; stroke: #cccccc; stroke-opacity: 0.6; stroke-width: 0.6"/>
     </g>
     <g id="line2d_28"/>
     <g id="text_15">
      <!-- 20 -->
      <g style="fill: #262626" transform="translate(28.055312 165.833533) scale(0.09 -0.09)">
       <use xlink:href="#ArialMT-32"/>
       <use xlink:href="#ArialMT-30" transform="translate(55.615234 0)"/>
      </g>
     </g>
    </g>
    <g id="ytick_3">
     <g id="line2d_29">
      <path d="M 41.565 141.387872 
L 476.565 141.387872 
" clip-path="url(#p433e00a382)" style="fill: none; stroke-dasharray: 2.22,0.96; stroke-dashoffset: 0; stroke: #cccccc; stroke-opacity: 0.6; stroke-width: 0.6"/>
     </g>
     <g id="line2d_30"/>
     <g id="text_16">
      <!-- 40 -->
      <g style="fill: #262626" transform="translate(28.055312 144.608887) scale(0.09 -0.09)">
       <defs>
        <path id="ArialMT-34" d="M 2069 0 
L 2069 1097 
L 81 1097 
L 81 1613 
L 2172 4581 
L 2631 4581 
L 2631 1613 
L 3250 1613 
L 3250 1097 
L 2631 1097 
L 2631 0 
L 2069 0 
z
M 2069 1613 
L 2069 3678 
L 634 1613 
L 2069 1613 
z
" transform="scale(0.015625)"/>
       </defs>
       <use xlink:href="#ArialMT-34"/>
       <use xlink:href="#ArialMT-30" transform="translate(55.615234 0)"/>
      </g>
     </g>
    </g>
    <g id="ytick_4">
     <g id="line2d_31">
      <path d="M 41.565 120.163226 
L 476.565 120.163226 
" clip-path="url(#p433e00a382)" style="fill: none; stroke-dasharray: 2.22,0.96; stroke-dashoffset: 0; stroke: #cccccc; stroke-opacity: 0.6; stroke-width: 0.6"/>
     </g>
     <g id="line2d_32"/>
     <g id="text_17">
      <!-- 60 -->
      <g style="fill: #262626" transform="translate(28.055312 123.384242) scale(0.09 -0.09)">
       <defs>
        <path id="ArialMT-36" d="M 3184 3459 
L 2625 3416 
Q 2550 3747 2413 3897 
Q 2184 4138 1850 4138 
Q 1581 4138 1378 3988 
Q 1113 3794 959 3422 
Q 806 3050 800 2363 
Q 1003 2672 1297 2822 
Q 1591 2972 1913 2972 
Q 2475 2972 2870 2558 
Q 3266 2144 3266 1488 
Q 3266 1056 3080 686 
Q 2894 316 2569 119 
Q 2244 -78 1831 -78 
Q 1128 -78 684 439 
Q 241 956 241 2144 
Q 241 3472 731 4075 
Q 1159 4600 1884 4600 
Q 2425 4600 2770 4297 
Q 3116 3994 3184 3459 
z
M 888 1484 
Q 888 1194 1011 928 
Q 1134 663 1356 523 
Q 1578 384 1822 384 
Q 2178 384 2434 671 
Q 2691 959 2691 1453 
Q 2691 1928 2437 2201 
Q 2184 2475 1800 2475 
Q 1419 2475 1153 2201 
Q 888 1928 888 1484 
z
" transform="scale(0.015625)"/>
       </defs>
       <use xlink:href="#ArialMT-36"/>
       <use xlink:href="#ArialMT-30" transform="translate(55.615234 0)"/>
      </g>
     </g>
    </g>
    <g id="ytick_5">
     <g id="line2d_33">
      <path d="M 41.565 98.938581 
L 476.565 98.938581 
" clip-path="url(#p433e00a382)" style="fill: none; stroke-dasharray: 2.22,0.96; stroke-dashoffset: 0; stroke: #cccccc; stroke-opacity: 0.6; stroke-width: 0.6"/>
     </g>
     <g id="line2d_34"/>
     <g id="text_18">
      <!-- 80 -->
      <g style="fill: #262626" transform="translate(28.055312 102.159597) scale(0.09 -0.09)">
       <defs>
        <path id="ArialMT-38" d="M 1131 2484 
Q 781 2613 612 2850 
Q 444 3088 444 3419 
Q 444 3919 803 4259 
Q 1163 4600 1759 4600 
Q 2359 4600 2725 4251 
Q 3091 3903 3091 3403 
Q 3091 3084 2923 2848 
Q 2756 2613 2416 2484 
Q 2838 2347 3058 2040 
Q 3278 1734 3278 1309 
Q 3278 722 2862 322 
Q 2447 -78 1769 -78 
Q 1091 -78 675 323 
Q 259 725 259 1325 
Q 259 1772 486 2073 
Q 713 2375 1131 2484 
z
M 1019 3438 
Q 1019 3113 1228 2906 
Q 1438 2700 1772 2700 
Q 2097 2700 2305 2904 
Q 2513 3109 2513 3406 
Q 2513 3716 2298 3927 
Q 2084 4138 1766 4138 
Q 1444 4138 1231 3931 
Q 1019 3725 1019 3438 
z
M 838 1322 
Q 838 1081 952 856 
Q 1066 631 1291 507 
Q 1516 384 1775 384 
Q 2178 384 2440 643 
Q 2703 903 2703 1303 
Q 2703 1709 2433 1975 
Q 2163 2241 1756 2241 
Q 1359 2241 1098 1978 
Q 838 1716 838 1322 
z
" transform="scale(0.015625)"/>
       </defs>
       <use xlink:href="#ArialMT-38"/>
       <use xlink:href="#ArialMT-30" transform="translate(55.615234 0)"/>
      </g>
     </g>
    </g>
    <g id="ytick_6">
     <g id="line2d_35">
      <path d="M 41.565 77.713936 
L 476.565 77.713936 
" clip-path="url(#p433e00a382)" style="fill: none; stroke-dasharray: 2.22,0.96; stroke-dashoffset: 0; stroke: #cccccc; stroke-opacity: 0.6; stroke-width: 0.6"/>
     </g>
     <g id="line2d_36"/>
     <g id="text_19">
      <!-- 100 -->
      <g style="fill: #262626" transform="translate(23.050469 80.934952) scale(0.09 -0.09)">
       <use xlink:href="#ArialMT-31"/>
       <use xlink:href="#ArialMT-30" transform="translate(55.615234 0)"/>
       <use xlink:href="#ArialMT-30" transform="translate(111.230469 0)"/>
      </g>
     </g>
    </g>
    <g id="ytick_7">
     <g id="line2d_37">
      <path d="M 41.565 56.489291 
L 476.565 56.489291 
" clip-path="url(#p433e00a382)" style="fill: none; stroke-dasharray: 2.22,0.96; stroke-dashoffset: 0; stroke: #cccccc; stroke-opacity: 0.6; stroke-width: 0.6"/>
     </g>
     <g id="line2d_38"/>
     <g id="text_20">
      <!-- 120 -->
      <g style="fill: #262626" transform="translate(23.050469 59.710306) scale(0.09 -0.09)">
       <use xlink:href="#ArialMT-31"/>
       <use xlink:href="#ArialMT-32" transform="translate(55.615234 0)"/>
       <use xlink:href="#ArialMT-30" transform="translate(111.230469 0)"/>
      </g>
     </g>
    </g>
    <g id="ytick_8">
     <g id="line2d_39">
      <path d="M 41.565 35.264645 
L 476.565 35.264645 
" clip-path="url(#p433e00a382)" style="fill: none; stroke-dasharray: 2.22,0.96; stroke-dashoffset: 0; stroke: #cccccc; stroke-opacity: 0.6; stroke-width: 0.6"/>
     </g>
     <g id="line2d_40"/>
     <g id="text_21">
      <!-- 140 -->
      <g style="fill: #262626" transform="translate(23.050469 38.485661) scale(0.09 -0.09)">
       <use xlink:href="#ArialMT-31"/>
       <use xlink:href="#ArialMT-34" transform="translate(55.615234 0)"/>
       <use xlink:href="#ArialMT-30" transform="translate(111.230469 0)"/>
      </g>
     </g>
    </g>
    <g id="ytick_9">
     <g id="line2d_41">
      <path d="M 41.565 14.04 
L 476.565 14.04 
" clip-path="url(#p433e00a382)" style="fill: none; stroke-dasharray: 2.22,0.96; stroke-dashoffset: 0; stroke: #cccccc; stroke-opacity: 0.6; stroke-width: 0.6"/>
     </g>
     <g id="line2d_42"/>
     <g id="text_22">
      <!-- 160 -->
      <g style="fill: #262626" transform="translate(23.050469 17.261016) scale(0.09 -0.09)">
       <use xlink:href="#ArialMT-31"/>
       <use xlink:href="#ArialMT-36" transform="translate(55.615234 0)"/>
       <use xlink:href="#ArialMT-30" transform="translate(111.230469 0)"/>
      </g>
     </g>
    </g>
    <g id="text_23">
     <!-- Annual publications -->
     <g style="fill: #262626" transform="translate(17.261719 137.964128) rotate(-90) scale(0.09 -0.09)">
      <defs>
       <path id="ArialMT-41" d="M -9 0 
L 1750 4581 
L 2403 4581 
L 4278 0 
L 3588 0 
L 3053 1388 
L 1138 1388 
L 634 0 
L -9 0 
z
M 1313 1881 
L 2866 1881 
L 2388 3150 
Q 2169 3728 2063 4100 
Q 1975 3659 1816 3225 
L 1313 1881 
z
" transform="scale(0.015625)"/>
       <path id="ArialMT-70" d="M 422 -1272 
L 422 3319 
L 934 3319 
L 934 2888 
Q 1116 3141 1344 3267 
Q 1572 3394 1897 3394 
Q 2322 3394 2647 3175 
Q 2972 2956 3137 2557 
Q 3303 2159 3303 1684 
Q 3303 1175 3120 767 
Q 2938 359 2589 142 
Q 2241 -75 1856 -75 
Q 1575 -75 1351 44 
Q 1128 163 984 344 
L 984 -1272 
L 422 -1272 
z
M 931 1641 
Q 931 1000 1190 694 
Q 1450 388 1819 388 
Q 2194 388 2461 705 
Q 2728 1022 2728 1688 
Q 2728 2322 2467 2637 
Q 2206 2953 1844 2953 
Q 1484 2953 1207 2617 
Q 931 2281 931 1641 
z
" transform="scale(0.015625)"/>
       <path id="ArialMT-73" d="M 197 991 
L 753 1078 
Q 800 744 1014 566 
Q 1228 388 1613 388 
Q 2000 388 2187 545 
Q 2375 703 2375 916 
Q 2375 1106 2209 1216 
Q 2094 1291 1634 1406 
Q 1016 1563 777 1677 
Q 538 1791 414 1992 
Q 291 2194 291 2438 
Q 291 2659 392 2848 
Q 494 3038 669 3163 
Q 800 3259 1026 3326 
Q 1253 3394 1513 3394 
Q 1903 3394 2198 3281 
Q 2494 3169 2634 2976 
Q 2775 2784 2828 2463 
L 2278 2388 
Q 2241 2644 2061 2787 
Q 1881 2931 1553 2931 
Q 1166 2931 1000 2803 
Q 834 2675 834 2503 
Q 834 2394 903 2306 
Q 972 2216 1119 2156 
Q 1203 2125 1616 2013 
Q 2213 1853 2448 1751 
Q 2684 1650 2818 1456 
Q 2953 1263 2953 975 
Q 2953 694 2789 445 
Q 2625 197 2315 61 
Q 2006 -75 1616 -75 
Q 969 -75 630 194 
Q 291 463 197 991 
z
" transform="scale(0.015625)"/>
      </defs>
      <use xlink:href="#ArialMT-41"/>
      <use xlink:href="#ArialMT-6e" transform="translate(66.699219 0)"/>
      <use xlink:href="#ArialMT-6e" transform="translate(122.314453 0)"/>
      <use xlink:href="#ArialMT-75" transform="translate(177.929688 0)"/>
      <use xlink:href="#ArialMT-61" transform="translate(233.544922 0)"/>
      <use xlink:href="#ArialMT-6c" transform="translate(289.160156 0)"/>
      <use xlink:href="#ArialMT-20" transform="translate(311.376953 0)"/>
      <use xlink:href="#ArialMT-70" transform="translate(339.160156 0)"/>
      <use xlink:href="#ArialMT-75" transform="translate(394.775391 0)"/>
      <use xlink:href="#ArialMT-62" transform="translate(450.390625 0)"/>
      <use xlink:href="#ArialMT-6c" transform="translate(506.005859 0)"/>
      <use xlink:href="#ArialMT-69" transform="translate(528.222656 0)"/>
      <use xlink:href="#ArialMT-63" transform="translate(550.439453 0)"/>
      <use xlink:href="#ArialMT-61" transform="translate(600.439453 0)"/>
      <use xlink:href="#ArialMT-74" transform="translate(656.054688 0)"/>
      <use xlink:href="#ArialMT-69" transform="translate(683.837891 0)"/>
      <use xlink:href="#ArialMT-6f" transform="translate(706.054688 0)"/>
      <use xlink:href="#ArialMT-6e" transform="translate(761.669922 0)"/>
      <use xlink:href="#ArialMT-73" transform="translate(817.285156 0)"/>
     </g>
    </g>
   </g>
   <g id="patch_3">
    <path d="M 61.337727 183.837162 
L 72.206457 183.837162 
L 72.206457 182.77593 
L 61.337727 182.77593 
z
" clip-path="url(#p433e00a382)" style="fill: #1c8041; opacity: 0.82"/>
   </g>
   <g id="patch_4">
    <path d="M 78.05885 183.837162 
L 88.927579 183.837162 
L 88.927579 183.837162 
L 78.05885 183.837162 
z
" clip-path="url(#p433e00a382)" style="fill: #1c8041; opacity: 0.82"/>
   </g>
   <g id="patch_5">
    <path d="M 94.779972 183.837162 
L 105.648702 183.837162 
L 105.648702 181.714698 
L 94.779972 181.714698 
z
" clip-path="url(#p433e00a382)" style="fill: #1c8041; opacity: 0.82"/>
   </g>
   <g id="patch_6">
    <path d="M 111.501095 183.837162 
L 122.369824 183.837162 
L 122.369824 182.77593 
L 111.501095 182.77593 
z
" clip-path="url(#p433e00a382)" style="fill: #1c8041; opacity: 0.82"/>
   </g>
   <g id="patch_7">
    <path d="M 128.222217 183.837162 
L 139.090947 183.837162 
L 139.090947 183.837162 
L 128.222217 183.837162 
z
" clip-path="url(#p433e00a382)" style="fill: #1c8041; opacity: 0.82"/>
   </g>
   <g id="patch_8">
    <path d="M 144.943339 183.837162 
L 155.812069 183.837162 
L 155.812069 182.77593 
L 144.943339 182.77593 
z
" clip-path="url(#p433e00a382)" style="fill: #1c8041; opacity: 0.82"/>
   </g>
   <g id="patch_9">
    <path d="M 161.664462 183.837162 
L 172.533191 183.837162 
L 172.533191 182.77593 
L 161.664462 182.77593 
z
" clip-path="url(#p433e00a382)" style="fill: #1c8041; opacity: 0.82"/>
   </g>
   <g id="patch_10">
    <path d="M 178.385584 183.837162 
L 189.254314 183.837162 
L 189.254314 182.77593 
L 178.385584 182.77593 
z
" clip-path="url(#p433e00a382)" style="fill: #1c8041; opacity: 0.82"/>
   </g>
   <g id="patch_11">
    <path d="M 195.106707 183.837162 
L 205.975436 183.837162 
L 205.975436 182.77593 
L 195.106707 182.77593 
z
" clip-path="url(#p433e00a382)" style="fill: #1c8041; opacity: 0.82"/>
   </g>
   <g id="patch_12">
    <path d="M 211.827829 183.837162 
L 222.696559 183.837162 
L 222.696559 181.714698 
L 211.827829 181.714698 
z
" clip-path="url(#p433e00a382)" style="fill: #1c8041; opacity: 0.82"/>
   </g>
   <g id="patch_13">
    <path d="M 228.548952 183.837162 
L 239.417681 183.837162 
L 239.417681 180.653466 
L 228.548952 180.653466 
z
" clip-path="url(#p433e00a382)" style="fill: #1c8041; opacity: 0.82"/>
   </g>
   <g id="patch_14">
    <path d="M 245.270074 183.837162 
L 256.138804 183.837162 
L 256.138804 181.714698 
L 245.270074 181.714698 
z
" clip-path="url(#p433e00a382)" style="fill: #1c8041; opacity: 0.82"/>
   </g>
   <g id="patch_15">
    <path d="M 261.991196 183.837162 
L 272.859926 183.837162 
L 272.859926 179.592233 
L 261.991196 179.592233 
z
" clip-path="url(#p433e00a382)" style="fill: #1c8041; opacity: 0.82"/>
   </g>
   <g id="patch_16">
    <path d="M 278.712319 183.837162 
L 289.581048 183.837162 
L 289.581048 179.592233 
L 278.712319 179.592233 
z
" clip-path="url(#p433e00a382)" style="fill: #1c8041; opacity: 0.82"/>
   </g>
   <g id="patch_17">
    <path d="M 295.433441 183.837162 
L 306.302171 183.837162 
L 306.302171 177.469769 
L 295.433441 177.469769 
z
" clip-path="url(#p433e00a382)" style="fill: #1c8041; opacity: 0.82"/>
   </g>
   <g id="patch_18">
    <path d="M 312.154564 183.837162 
L 323.023293 183.837162 
L 323.023293 177.469769 
L 312.154564 177.469769 
z
" clip-path="url(#p433e00a382)" style="fill: #1c8041; opacity: 0.82"/>
   </g>
   <g id="patch_19">
    <path d="M 328.875686 183.837162 
L 339.744416 183.837162 
L 339.744416 172.163607 
L 328.875686 172.163607 
z
" clip-path="url(#p433e00a382)" style="fill: #1c8041; opacity: 0.82"/>
   </g>
   <g id="patch_20">
    <path d="M 345.596809 183.837162 
L 356.465538 183.837162 
L 356.465538 166.857446 
L 345.596809 166.857446 
z
" clip-path="url(#p433e00a382)" style="fill: #1c8041; opacity: 0.82"/>
   </g>
   <g id="patch_21">
    <path d="M 362.317931 183.837162 
L 373.186661 183.837162 
L 373.186661 165.796214 
L 362.317931 165.796214 
z
" clip-path="url(#p433e00a382)" style="fill: #1c8041; opacity: 0.82"/>
   </g>
   <g id="patch_22">
    <path d="M 379.039053 183.837162 
L 389.907783 183.837162 
L 389.907783 144.571569 
L 379.039053 144.571569 
z
" clip-path="url(#p433e00a382)" style="fill: #1c8041; opacity: 0.82"/>
   </g>
   <g id="patch_23">
    <path d="M 395.760176 183.837162 
L 406.628905 183.837162 
L 406.628905 122.285691 
L 395.760176 122.285691 
z
" clip-path="url(#p433e00a382)" style="fill: #1c8041; opacity: 0.82"/>
   </g>
   <g id="patch_24">
    <path d="M 412.481298 183.837162 
L 423.350028 183.837162 
L 423.350028 112.734601 
L 412.481298 112.734601 
z
" clip-path="url(#p433e00a382)" style="fill: #1c8041; opacity: 0.82"/>
   </g>
   <g id="patch_25">
    <path d="M 429.202421 183.837162 
L 440.07115 183.837162 
L 440.07115 62.856684 
L 429.202421 62.856684 
z
" clip-path="url(#p433e00a382)" style="fill: #1c8041; opacity: 0.82"/>
   </g>
   <g id="patch_26">
    <path d="M 445.923543 183.837162 
L 456.792273 183.837162 
L 456.792273 177.469769 
L 445.923543 177.469769 
z
" clip-path="url(#p433e00a382)" style="fill: #1c8041; opacity: 0.82"/>
   </g>
   <g id="patch_27">
    <path d="M 41.565 183.837162 
L 41.565 14.04 
" style="fill: none; stroke: #cccccc; stroke-linejoin: miter; stroke-linecap: square"/>
   </g>
   <g id="patch_28">
    <path d="M 476.565 183.837162 
L 476.565 14.04 
" style="fill: none; stroke: #cccccc; stroke-linejoin: miter; stroke-linecap: square"/>
   </g>
   <g id="patch_29">
    <path d="M 41.565 183.837162 
L 476.565 183.837162 
" style="fill: none; stroke: #cccccc; stroke-linejoin: miter; stroke-linecap: square"/>
   </g>
   <g id="patch_30">
    <path d="M 41.565 14.04 
L 476.565 14.04 
" style="fill: none; stroke: #cccccc; stroke-linejoin: miter; stroke-linecap: square"/>
   </g>
   <g id="text_24">
    <!-- 1 -->
    <g style="fill: #262626" transform="translate(64.26967 180.562687) scale(0.09 -0.09)">
     <use xlink:href="#ArialMT-31"/>
    </g>
   </g>
   <g id="text_25">
    <!-- 2 -->
    <g style="fill: #262626" transform="translate(97.711915 179.501455) scale(0.09 -0.09)">
     <use xlink:href="#ArialMT-32"/>
    </g>
   </g>
   <g id="text_26">
    <!-- 1 -->
    <g style="fill: #262626" transform="translate(114.433037 180.562687) scale(0.09 -0.09)">
     <use xlink:href="#ArialMT-31"/>
    </g>
   </g>
   <g id="text_27">
    <!-- 1 -->
    <g style="fill: #262626" transform="translate(147.875282 180.562687) scale(0.09 -0.09)">
     <use xlink:href="#ArialMT-31"/>
    </g>
   </g>
   <g id="text_28">
    <!-- 1 -->
    <g style="fill: #262626" transform="translate(164.596405 180.562687) scale(0.09 -0.09)">
     <use xlink:href="#ArialMT-31"/>
    </g>
   </g>
   <g id="text_29">
    <!-- 1 -->
    <g style="fill: #262626" transform="translate(181.317527 180.562687) scale(0.09 -0.09)">
     <use xlink:href="#ArialMT-31"/>
    </g>
   </g>
   <g id="text_30">
    <!-- 1 -->
    <g style="fill: #262626" transform="translate(198.03865 180.562687) scale(0.09 -0.09)">
     <use xlink:href="#ArialMT-31"/>
    </g>
   </g>
   <g id="text_31">
    <!-- 2 -->
    <g style="fill: #262626" transform="translate(214.759772 179.501455) scale(0.09 -0.09)">
     <use xlink:href="#ArialMT-32"/>
    </g>
   </g>
   <g id="text_32">
    <!-- 3 -->
    <g style="fill: #262626" transform="translate(231.480894 178.440223) scale(0.09 -0.09)">
     <use xlink:href="#ArialMT-33"/>
    </g>
   </g>
   <g id="text_33">
    <!-- 2 -->
    <g style="fill: #262626" transform="translate(248.202017 179.501455) scale(0.09 -0.09)">
     <use xlink:href="#ArialMT-32"/>
    </g>
   </g>
   <g id="text_34">
    <!-- 4 -->
    <g style="fill: #262626" transform="translate(264.923139 177.37899) scale(0.09 -0.09)">
     <use xlink:href="#ArialMT-34"/>
    </g>
   </g>
   <g id="text_35">
    <!-- 4 -->
    <g style="fill: #262626" transform="translate(281.644262 177.37899) scale(0.09 -0.09)">
     <use xlink:href="#ArialMT-34"/>
    </g>
   </g>
   <g id="text_36">
    <!-- 6 -->
    <g style="fill: #262626" transform="translate(298.365384 175.256526) scale(0.09 -0.09)">
     <use xlink:href="#ArialMT-36"/>
    </g>
   </g>
   <g id="text_37">
    <!-- 6 -->
    <g style="fill: #262626" transform="translate(315.086507 175.256526) scale(0.09 -0.09)">
     <use xlink:href="#ArialMT-36"/>
    </g>
   </g>
   <g id="text_38">
    <!-- 11 -->
    <g style="fill: #262626" transform="translate(329.637082 169.950365) scale(0.09 -0.09)">
     <use xlink:href="#ArialMT-31"/>
     <use xlink:href="#ArialMT-31" transform="translate(48.240234 0)"/>
    </g>
   </g>
   <g id="text_39">
    <!-- 16 -->
    <g style="fill: #262626" transform="translate(346.02633 164.644203) scale(0.09 -0.09)">
     <use xlink:href="#ArialMT-31"/>
     <use xlink:href="#ArialMT-36" transform="translate(55.615234 0)"/>
    </g>
   </g>
   <g id="text_40">
    <!-- 17 -->
    <g style="fill: #262626" transform="translate(362.747452 163.582971) scale(0.09 -0.09)">
     <use xlink:href="#ArialMT-31"/>
     <use xlink:href="#ArialMT-37" transform="translate(55.615234 0)"/>
    </g>
   </g>
   <g id="text_41">
    <!-- 37 -->
    <g style="fill: #262626" transform="translate(379.468574 142.358326) scale(0.09 -0.09)">
     <use xlink:href="#ArialMT-33"/>
     <use xlink:href="#ArialMT-37" transform="translate(55.615234 0)"/>
    </g>
   </g>
   <g id="text_42">
    <!-- 58 -->
    <g style="fill: #262626" transform="translate(396.189697 120.072448) scale(0.09 -0.09)">
     <use xlink:href="#ArialMT-35"/>
     <use xlink:href="#ArialMT-38" transform="translate(55.615234 0)"/>
    </g>
   </g>
   <g id="text_43">
    <!-- 67 -->
    <g style="fill: #262626" transform="translate(412.910819 110.521358) scale(0.09 -0.09)">
     <use xlink:href="#ArialMT-36"/>
     <use xlink:href="#ArialMT-37" transform="translate(55.615234 0)"/>
    </g>
   </g>
   <g id="text_44">
    <!-- 114 -->
    <g style="fill: #262626" transform="translate(427.461395 60.643441) scale(0.09 -0.09)">
     <use xlink:href="#ArialMT-31"/>
     <use xlink:href="#ArialMT-31" transform="translate(48.240234 0)"/>
     <use xlink:href="#ArialMT-34" transform="translate(103.855469 0)"/>
    </g>
   </g>
   <g id="text_45">
    <!-- 6 -->
    <g style="fill: #262626" transform="translate(448.855486 175.256526) scale(0.09 -0.09)">
     <use xlink:href="#ArialMT-36"/>
    </g>
   </g>
   <g id="legend_1">
    <g id="patch_31">
     <path d="M 49.665 28.582031 
L 67.665 28.582031 
L 67.665 22.282031 
L 49.665 22.282031 
z
" style="fill: #1c8041; opacity: 0.82"/>
    </g>
    <g id="text_46">
     <!-- Annual publications -->
     <g style="fill: #262626" transform="translate(74.865 28.582031) scale(0.09 -0.09)">
      <use xlink:href="#ArialMT-41"/>
      <use xlink:href="#ArialMT-6e" transform="translate(66.699219 0)"/>
      <use xlink:href="#ArialMT-6e" transform="translate(122.314453 0)"/>
      <use xlink:href="#ArialMT-75" transform="translate(177.929688 0)"/>
      <use xlink:href="#ArialMT-61" transform="translate(233.544922 0)"/>
      <use xlink:href="#ArialMT-6c" transform="translate(289.160156 0)"/>
      <use xlink:href="#ArialMT-20" transform="translate(311.376953 0)"/>
      <use xlink:href="#ArialMT-70" transform="translate(339.160156 0)"/>
      <use xlink:href="#ArialMT-75" transform="translate(394.775391 0)"/>
      <use xlink:href="#ArialMT-62" transform="translate(450.390625 0)"/>
      <use xlink:href="#ArialMT-6c" transform="translate(506.005859 0)"/>
      <use xlink:href="#ArialMT-69" transform="translate(528.222656 0)"/>
      <use xlink:href="#ArialMT-63" transform="translate(550.439453 0)"/>
      <use xlink:href="#ArialMT-61" transform="translate(600.439453 0)"/>
      <use xlink:href="#ArialMT-74" transform="translate(656.054688 0)"/>
      <use xlink:href="#ArialMT-69" transform="translate(683.837891 0)"/>
      <use xlink:href="#ArialMT-6f" transform="translate(706.054688 0)"/>
      <use xlink:href="#ArialMT-6e" transform="translate(761.669922 0)"/>
      <use xlink:href="#ArialMT-73" transform="translate(817.285156 0)"/>
     </g>
    </g>
    <g id="line2d_43">
     <path d="M 49.665 38.2725 
L 58.665 38.2725 
L 67.665 38.2725 
" style="fill: none; stroke: #e55709; stroke-width: 1.1; stroke-linecap: round"/>
     <defs>
      <path id="m907761b835" d="M 0 2 
C 0.530406 2 1.03916 1.789267 1.414214 1.414214 
C 1.789267 1.03916 2 0.530406 2 0 
C 2 -0.530406 1.789267 -1.03916 1.414214 -1.414214 
C 1.03916 -1.789267 0.530406 -2 0 -2 
C -0.530406 -2 -1.03916 -1.789267 -1.414214 -1.414214 
C -1.789267 -1.03916 -2 -0.530406 -2 0 
C -2 0.530406 -1.789267 1.03916 -1.414214 1.414214 
C -1.03916 1.789267 -0.530406 2 0 2 
z
" style="stroke: #e55709"/>
     </defs>
     <g>
      <use xlink:href="#m907761b835" x="58.665" y="38.2725" style="fill: #e55709; stroke: #e55709"/>
     </g>
    </g>
    <g id="text_47">
     <!-- Cumulative publications -->
     <g style="fill: #262626" transform="translate(74.865 41.4225) scale(0.09 -0.09)">
      <defs>
       <path id="ArialMT-43" d="M 3763 1606 
L 4369 1453 
Q 4178 706 3683 314 
Q 3188 -78 2472 -78 
Q 1731 -78 1267 223 
Q 803 525 561 1097 
Q 319 1669 319 2325 
Q 319 3041 592 3573 
Q 866 4106 1370 4382 
Q 1875 4659 2481 4659 
Q 3169 4659 3637 4309 
Q 4106 3959 4291 3325 
L 3694 3184 
Q 3534 3684 3231 3912 
Q 2928 4141 2469 4141 
Q 1941 4141 1586 3887 
Q 1231 3634 1087 3207 
Q 944 2781 944 2328 
Q 944 1744 1114 1308 
Q 1284 872 1643 656 
Q 2003 441 2422 441 
Q 2931 441 3284 734 
Q 3638 1028 3763 1606 
z
" transform="scale(0.015625)"/>
       <path id="ArialMT-6d" d="M 422 0 
L 422 3319 
L 925 3319 
L 925 2853 
Q 1081 3097 1340 3245 
Q 1600 3394 1931 3394 
Q 2300 3394 2536 3241 
Q 2772 3088 2869 2813 
Q 3263 3394 3894 3394 
Q 4388 3394 4653 3120 
Q 4919 2847 4919 2278 
L 4919 0 
L 4359 0 
L 4359 2091 
Q 4359 2428 4304 2576 
Q 4250 2725 4106 2815 
Q 3963 2906 3769 2906 
Q 3419 2906 3187 2673 
Q 2956 2441 2956 1928 
L 2956 0 
L 2394 0 
L 2394 2156 
Q 2394 2531 2256 2718 
Q 2119 2906 1806 2906 
Q 1569 2906 1367 2781 
Q 1166 2656 1075 2415 
Q 984 2175 984 1722 
L 984 0 
L 422 0 
z
" transform="scale(0.015625)"/>
       <path id="ArialMT-76" d="M 1344 0 
L 81 3319 
L 675 3319 
L 1388 1331 
Q 1503 1009 1600 663 
Q 1675 925 1809 1294 
L 2547 3319 
L 3125 3319 
L 1869 0 
L 1344 0 
z
" transform="scale(0.015625)"/>
      </defs>
      <use xlink:href="#ArialMT-43"/>
      <use xlink:href="#ArialMT-75" transform="translate(72.216797 0)"/>
      <use xlink:href="#ArialMT-6d" transform="translate(127.832031 0)"/>
      <use xlink:href="#ArialMT-75" transform="translate(211.132812 0)"/>
      <use xlink:href="#ArialMT-6c" transform="translate(266.748047 0)"/>
      <use xlink:href="#ArialMT-61" transform="translate(288.964844 0)"/>
      <use xlink:href="#ArialMT-74" transform="translate(344.580078 0)"/>
      <use xlink:href="#ArialMT-69" transform="translate(372.363281 0)"/>
      <use xlink:href="#ArialMT-76" transform="translate(394.580078 0)"/>
      <use xlink:href="#ArialMT-65" transform="translate(444.580078 0)"/>
      <use xlink:href="#ArialMT-20" transform="translate(500.195312 0)"/>
      <use xlink:href="#ArialMT-70" transform="translate(527.978516 0)"/>
      <use xlink:href="#ArialMT-75" transform="translate(583.59375 0)"/>
      <use xlink:href="#ArialMT-62" transform="translate(639.208984 0)"/>
      <use xlink:href="#ArialMT-6c" transform="translate(694.824219 0)"/>
      <use xlink:href="#ArialMT-69" transform="translate(717.041016 0)"/>
      <use xlink:href="#ArialMT-63" transform="translate(739.257812 0)"/>
      <use xlink:href="#ArialMT-61" transform="translate(789.257812 0)"/>
      <use xlink:href="#ArialMT-74" transform="translate(844.873047 0)"/>
      <use xlink:href="#ArialMT-69" transform="translate(872.65625 0)"/>
      <use xlink:href="#ArialMT-6f" transform="translate(894.873047 0)"/>
      <use xlink:href="#ArialMT-6e" transform="translate(950.488281 0)"/>
      <use xlink:href="#ArialMT-73" transform="translate(1006.103516 0)"/>
     </g>
    </g>
   </g>
  </g>
  <g id="axes_2">
   <g id="matplotlib.axis_3">
    <g id="ytick_10">
     <g id="line2d_44"/>
     <g id="text_48">
      <!-- −25 -->
      <g style="fill: #262626" transform="translate(480.065 187.058178) scale(0.09 -0.09)">
       <defs>
        <path id="ArialMT-2212" d="M 3381 1997 
L 356 1997 
L 356 2522 
L 3381 2522 
L 3381 1997 
z
" transform="scale(0.015625)"/>
       </defs>
       <use xlink:href="#ArialMT-2212"/>
       <use xlink:href="#ArialMT-32" transform="translate(58.398438 0)"/>
       <use xlink:href="#ArialMT-35" transform="translate(114.013672 0)"/>
      </g>
     </g>
    </g>
    <g id="ytick_11">
     <g id="line2d_45"/>
     <g id="text_49">
      <!-- 25 -->
      <g style="fill: #262626" transform="translate(480.065 165.833533) scale(0.09 -0.09)">
       <use xlink:href="#ArialMT-32"/>
       <use xlink:href="#ArialMT-35" transform="translate(55.615234 0)"/>
      </g>
     </g>
    </g>
    <g id="ytick_12">
     <g id="line2d_46"/>
     <g id="text_50">
      <!-- 75 -->
      <g style="fill: #262626" transform="translate(480.065 144.608887) scale(0.09 -0.09)">
       <use xlink:href="#ArialMT-37"/>
       <use xlink:href="#ArialMT-35" transform="translate(55.615234 0)"/>
      </g>
     </g>
    </g>
    <g id="ytick_13">
     <g id="line2d_47"/>
     <g id="text_51">
      <!-- 125 -->
      <g style="fill: #262626" transform="translate(480.065 123.384242) scale(0.09 -0.09)">
       <use xlink:href="#ArialMT-31"/>
       <use xlink:href="#ArialMT-32" transform="translate(55.615234 0)"/>
       <use xlink:href="#ArialMT-35" transform="translate(111.230469 0)"/>
      </g>
     </g>
    </g>
    <g id="ytick_14">
     <g id="line2d_48"/>
     <g id="text_52">
      <!-- 175 -->
      <g style="fill: #262626" transform="translate(480.065 102.159597) scale(0.09 -0.09)">
       <use xlink:href="#ArialMT-31"/>
       <use xlink:href="#ArialMT-37" transform="translate(55.615234 0)"/>
       <use xlink:href="#ArialMT-35" transform="translate(111.230469 0)"/>
      </g>
     </g>
    </g>
    <g id="ytick_15">
     <g id="line2d_49"/>
     <g id="text_53">
      <!-- 225 -->
      <g style="fill: #262626" transform="translate(480.065 80.934952) scale(0.09 -0.09)">
       <use xlink:href="#ArialMT-32"/>
       <use xlink:href="#ArialMT-32" transform="translate(55.615234 0)"/>
       <use xlink:href="#ArialMT-35" transform="translate(111.230469 0)"/>
      </g>
     </g>
    </g>
    <g id="ytick_16">
     <g id="line2d_50"/>
     <g id="text_54">
      <!-- 275 -->
      <g style="fill: #262626" transform="translate(480.065 59.710306) scale(0.09 -0.09)">
       <use xlink:href="#ArialMT-32"/>
       <use xlink:href="#ArialMT-37" transform="translate(55.615234 0)"/>
       <use xlink:href="#ArialMT-35" transform="translate(111.230469 0)"/>
      </g>
     </g>
    </g>
    <g id="ytick_17">
     <g id="line2d_51"/>
     <g id="text_55">
      <!-- 325 -->
      <g style="fill: #262626" transform="translate(480.065 38.485661) scale(0.09 -0.09)">
       <use xlink:href="#ArialMT-33"/>
       <use xlink:href="#ArialMT-32" transform="translate(55.615234 0)"/>
       <use xlink:href="#ArialMT-35" transform="translate(111.230469 0)"/>
      </g>
     </g>
    </g>
    <g id="ytick_18">
     <g id="line2d_52"/>
     <g id="text_56">
      <!-- 375 -->
      <g style="fill: #262626" transform="translate(480.065 17.261016) scale(0.09 -0.09)">
       <use xlink:href="#ArialMT-33"/>
       <use xlink:href="#ArialMT-37" transform="translate(55.615234 0)"/>
       <use xlink:href="#ArialMT-35" transform="translate(111.230469 0)"/>
      </g>
     </g>
    </g>
    <g id="text_57">
     <!-- Cumulative publications -->
     <g style="fill: #262626" transform="translate(505.882969 146.460691) rotate(-90) scale(0.09 -0.09)">
      <use xlink:href="#ArialMT-43"/>
      <use xlink:href="#ArialMT-75" transform="translate(72.216797 0)"/>
      <use xlink:href="#ArialMT-6d" transform="translate(127.832031 0)"/>
      <use xlink:href="#ArialMT-75" transform="translate(211.132812 0)"/>
      <use xlink:href="#ArialMT-6c" transform="translate(266.748047 0)"/>
      <use xlink:href="#ArialMT-61" transform="translate(288.964844 0)"/>
      <use xlink:href="#ArialMT-74" transform="translate(344.580078 0)"/>
      <use xlink:href="#ArialMT-69" transform="translate(372.363281 0)"/>
      <use xlink:href="#ArialMT-76" transform="translate(394.580078 0)"/>
      <use xlink:href="#ArialMT-65" transform="translate(444.580078 0)"/>
      <use xlink:href="#ArialMT-20" transform="translate(500.195312 0)"/>
      <use xlink:href="#ArialMT-70" transform="translate(527.978516 0)"/>
      <use xlink:href="#ArialMT-75" transform="translate(583.59375 0)"/>
      <use xlink:href="#ArialMT-62" transform="translate(639.208984 0)"/>
      <use xlink:href="#ArialMT-6c" transform="translate(694.824219 0)"/>
      <use xlink:href="#ArialMT-69" transform="translate(717.041016 0)"/>
      <use xlink:href="#ArialMT-63" transform="translate(739.257812 0)"/>
      <use xlink:href="#ArialMT-61" transform="translate(789.257812 0)"/>
      <use xlink:href="#ArialMT-74" transform="translate(844.873047 0)"/>
      <use xlink:href="#ArialMT-69" transform="translate(872.65625 0)"/>
      <use xlink:href="#ArialMT-6f" transform="translate(894.873047 0)"/>
      <use xlink:href="#ArialMT-6e" transform="translate(950.488281 0)"/>
      <use xlink:href="#ArialMT-73" transform="translate(1006.103516 0)"/>
     </g>
    </g>
   </g>
   <g id="line2d_53">
    <path d="M 66.772092 172.800347 
L 83.493214 172.800347 
L 100.214337 171.951361 
L 116.935459 171.526868 
L 133.656582 171.526868 
L 150.377704 171.102375 
L 167.098827 170.677882 
L 183.819949 170.253389 
L 200.541071 169.828896 
L 217.262194 168.979911 
L 233.983316 167.706432 
L 250.704439 166.857446 
L 267.425561 165.159475 
L 284.146684 163.461503 
L 300.867806 160.914545 
L 317.588929 158.367588 
L 334.310051 153.698166 
L 351.031173 146.90628 
L 367.752296 139.6899 
L 384.473418 123.983663 
L 401.194541 99.363074 
L 417.915663 70.922049 
L 434.636786 22.529858 
L 451.357908 19.982901 
" clip-path="url(#p433e00a382)" style="fill: none; stroke: #e55709; stroke-width: 1.1; stroke-linecap: round"/>
    <g clip-path="url(#p433e00a382)">
     <use xlink:href="#m907761b835" x="66.772092" y="172.800347" style="fill: #e55709; stroke: #e55709"/>
     <use xlink:href="#m907761b835" x="83.493214" y="172.800347" style="fill: #e55709; stroke: #e55709"/>
     <use xlink:href="#m907761b835" x="100.214337" y="171.951361" style="fill: #e55709; stroke: #e55709"/>
     <use xlink:href="#m907761b835" x="116.935459" y="171.526868" style="fill: #e55709; stroke: #e55709"/>
     <use xlink:href="#m907761b835" x="133.656582" y="171.526868" style="fill: #e55709; stroke: #e55709"/>
     <use xlink:href="#m907761b835" x="150.377704" y="171.102375" style="fill: #e55709; stroke: #e55709"/>
     <use xlink:href="#m907761b835" x="167.098827" y="170.677882" style="fill: #e55709; stroke: #e55709"/>
     <use xlink:href="#m907761b835" x="183.819949" y="170.253389" style="fill: #e55709; stroke: #e55709"/>
     <use xlink:href="#m907761b835" x="200.541071" y="169.828896" style="fill: #e55709; stroke: #e55709"/>
     <use xlink:href="#m907761b835" x="217.262194" y="168.979911" style="fill: #e55709; stroke: #e55709"/>
     <use xlink:href="#m907761b835" x="233.983316" y="167.706432" style="fill: #e55709; stroke: #e55709"/>
     <use xlink:href="#m907761b835" x="250.704439" y="166.857446" style="fill: #e55709; stroke: #e55709"/>
     <use xlink:href="#m907761b835" x="267.425561" y="165.159475" style="fill: #e55709; stroke: #e55709"/>
     <use xlink:href="#m907761b835" x="284.146684" y="163.461503" style="fill: #e55709; stroke: #e55709"/>
     <use xlink:href="#m907761b835" x="300.867806" y="160.914545" style="fill: #e55709; stroke: #e55709"/>
     <use xlink:href="#m907761b835" x="317.588929" y="158.367588" style="fill: #e55709; stroke: #e55709"/>
     <use xlink:href="#m907761b835" x="334.310051" y="153.698166" style="fill: #e55709; stroke: #e55709"/>
     <use xlink:href="#m907761b835" x="351.031173" y="146.90628" style="fill: #e55709; stroke: #e55709"/>
     <use xlink:href="#m907761b835" x="367.752296" y="139.6899" style="fill: #e55709; stroke: #e55709"/>
     <use xlink:href="#m907761b835" x="384.473418" y="123.983663" style="fill: #e55709; stroke: #e55709"/>
     <use xlink:href="#m907761b835" x="401.194541" y="99.363074" style="fill: #e55709; stroke: #e55709"/>
     <use xlink:href="#m907761b835" x="417.915663" y="70.922049" style="fill: #e55709; stroke: #e55709"/>
     <use xlink:href="#m907761b835" x="434.636786" y="22.529858" style="fill: #e55709; stroke: #e55709"/>
     <use xlink:href="#m907761b835" x="451.357908" y="19.982901" style="fill: #e55709; stroke: #e55709"/>
    </g>
   </g>
   <g id="patch_32">
    <path d="M 41.565 183.837162 
L 41.565 14.04 
" style="fill: none; stroke: #cccccc; stroke-linejoin: miter; stroke-linecap: square"/>
   </g>
   <g id="patch_33">
    <path d="M 476.565 183.837162 
L 476.565 14.04 
" style="fill: none; stroke: #cccccc; stroke-linejoin: miter; stroke-linecap: square"/>
   </g>
   <g id="patch_34">
    <path d="M 41.565 183.837162 
L 476.565 183.837162 
" style="fill: none; stroke: #cccccc; stroke-linejoin: miter; stroke-linecap: square"/>
   </g>
   <g id="patch_35">
    <path d="M 41.565 14.04 
L 476.565 14.04 
" style="fill: none; stroke: #cccccc; stroke-linejoin: miter; stroke-linecap: square"/>
   </g>
  </g>
 </g>
 <defs>
  <clipPath id="p433e00a382">
   <rect x="41.565" y="14.04" width="435" height="169.797162"/>
  </clipPath>
 </defs>
</svg>
